<svg xmlns="http://www.w3.org/2000/svg" version="1.1" xmlns:xlink="http://www.w3.org/1999/xlink" xmlns:svgjs="http://svgjs.com/svgjs" width="864" height="864"><svg version="1.1" id="SvgjsSvg1000" xmlns="http://www.w3.org/2000/svg" xmlns:xlink="http://www.w3.org/1999/xlink" x="0px" y="0px" viewBox="0 0 864 864" style="enable-background:new 0 0 864 864;" xml:space="preserve">
<style type="text/css">
	.st0{fill:#873E35;}
	.st1{fill:#FFFFFF;}
</style>
<path class="st0" d="M622.9,272.7c6.5-3.2,10.7-5.1,14.8-7.1c6.2-3,9.6-0.8,8.7,6.1c-0.7,5.1-2.5,10.1-3.7,15.2
	c9.4,4.1,9.4,4.1,3.7,18c3.5,1.4,6.9,2.8,10.4,4.2c-1.6,3.8-2.7,8-4.9,11.5c-2,3.4-5.1,6.1-8.2,9.6c11.4,5.5,4.9,11.1,0.5,16.3
	C625.9,368.1,602.4,383,579,398c-7.7,5-15.9,9.2-26.4,15.2c12.3,15.2,23.1,31,36.4,44.3c19.8,19.9,41.5,37.8,62,56.9
	c35.4,33,64.1,69.7,71.2,119.8c6.3,44.8,5.4,88.4-26.4,124.2c-31.9,35.9-71.4,60.6-121,62c-91.7,6.4-203.1-2.7-247.1-10.1
	c-19.2-3.3-30.3-5.7-46.2-10.8c-61.8-9.3-109.1-53.2-122.4-114.3c-7.3-33.5-8.5-66.9,7.5-98.6c3.5-6.8,9.4-12.4,14.2-18.6
	c4.4,5.2,9.5,10,13.1,15.6c27.3,42.1,89.2,64.7,139.1,49.7c19.4-5.8,38.4-13.4,58.6-20.5c-1.8-3.5-3.6-6.6-4.9-9.9
	c-5.2-12.8-10.2-25.7-15.4-38.5c-0.9-2.3-2.5-6.2-3.8-6.2c-8.2,0-10-6.2-10.9-11.7c-3.3-18.4-5.8-36.9-8.8-56.5
	c-8.8-0.3-9.6-8.4-7.5-16.5c4.5-18.1,10-36,15.6-55.4c-1.8-0.7-5.6-2.2-9.5-3.8c-25.7-10.2-49.7-23.2-70.3-41.9
	c-4.5-4.1-9-8.7-12.1-13.9c-2.5-4.1-2.8-9.4-2.4-14.5c-6.1-8.8-13-17.2-18.2-26.5c-7-12.5-5.1-15.7,8.9-18.4
	c-0.9-6.3-3.5-12.9-2.5-18.8c1.7-9.6,9.6-4,16.2-3.7c-0.8-3.3-1.6-6.1-2.3-8.9c-1.1-4.6-1.4-8.7,4.7-9.9c8.1-1.6,9.4-6.6,6.4-13.6
	c-14.5-33.4-22.5-68.5-26.8-104.4c-1-8-1.5-16-1.8-24c-0.3-10.5,3.3-16.2,13.6-15.9c13.3,0.5,27.7,1.4,39.5,6.8
	c32.1,14.8,63.2,31.9,94.4,48.6c6.9,3.7,12.3,5.1,20.4,2.7c22.9-7,46.3-6.2,69.4-0.1c5.7,1.5,9-0.1,13.8-3.4
	c18.2-12.6,36.6-25.1,56.1-35.4c20.4-10.8,41.9-19.5,63.4-28.1c12.7-5.1,19.5-0.9,24.2,12c15.7,44,5.7,85-14.9,124.7
	c-3.1,6-6.9,11.7-9.9,17.8c-1.8,3.6-2.9,9.1,3.6,8.2c10.4-1.5,8.4,3.8,6.5,9.7C625.8,265.7,624.8,267.9,622.9,272.7z"></path>
<path class="st1" d="M504.2,472.4c-7.1-1.2-11.7-2-16.3-2.8c0.4,4.9,0.8,9.9,1.4,14.8c1.9,15.8,3.9,31.5,6,49.1
	c-4.5-1.5-6.1-2-7.7-2.5c-8.3-2.9-10.4-1.3-11.3,7.3c-1.7,15.9-3.6,31.8-5.9,47.6c-1.2,8.3-5.7,11.9-14.9,12.7
	c-15.2,1.4-30.3,4.9-45.2,8.5c-5.6,1.3-8.4,0-10.1-4.6c-6.3-16.3-12.5-32.7-18.7-49.1c-0.4-1.1-0.4-2.4-0.8-3.6
	c-2.4-9.2-3.9-9.9-13.3-5.2c-5.9-16.3-7.4-32.9-7-49.9c0.1-2.2,0.4-4.3,0.6-6.5c1-11.3,0.2-12.1-10.8-9.7c-1.2-13.8,3.5-26.1,9-38.2
	c8.4-18.5,8.5-18.5,28.4-15.5c6.4,1,12.8,2,19.2,3c7.3,1,13.6,2.3,19.2,8.8c8.2,9.5,31.3,8.8,42.6,2.1c6.8-4.1,15.1-5.8,23-7.6
	c1.5-0.4,5.3,3.1,5.8,5.3C500,448.1,502,460.2,504.2,472.4z M539.1,337.2c10.7-4.5,11.3-4.7,14.7,8.1c-4.9,1.7-15.9-8.9-13,9.2
	c-9.5-7.7-17-9.2-21.9,3.1c-5.4-9.3-10.8-10.4-14.8-4.2c-5.8-2.3-10.3-4.4-15.1-6c-2.6-0.9-5.5-1-9.8-1.8
	c-9.6,17.2-14.1,38.3-17,60.1c-2,14.9,4.8,19.4,18.6,17.1c46.1-7.6,88.5-24.6,125.8-52.8c11.5-8.7,21.6-19.3,33.2-29.7
	c-12-6.1-12-6.1-0.9-22.6c-17.3-3.8-3.5-11.8-2.7-16.3c-4.1-3.8-9.7-6.5-9.9-9.6c-0.2-4,3.7-8.3,6.6-14c-5.5,1.6-9.2,3.1-13,3.6
	c-2.5,0.3-5.5-0.2-7.6-1.6c-0.8-0.5,0.3-4.3,1-6.5c1-3.1,2.4-6,4.6-11.4c-50.7,14.2-101.8,22.2-131.6,72.9
	C503.9,343.3,521.5,344.6,539.1,337.2z M356.1,352.1c-2.3-3.7-3.4-7.8-5.4-8.4c-2.8-0.8-6.4,1.1-10.6,2.2c6.2-14.6,6.5-14,16.4-8.2
	c3.3,2,7.5,3,11.4,3.3c13.6,1.1,27.4,2,40.2-6.8c-33.4-37.4-73.3-62.5-119.5-77.3c-5.1,7.9,7,21.5-9.5,21.5c0,4.8,0,9.2,0,13.6
	c-5.2-1.2-10.4-2.4-16-3.6c0.6,2.5,1.2,5.4,2,8.3c4.7,17,4.7,17-11.7,17.6c2,9.3,5,13.8,19.9,27.7c4.9,4.6,9.8,8.8,0.8,13.4
	c0.6,1.2,0.6,1.5,0.8,1.7c41.4,44.9,95.7,58.4,153.6,62.6c1.8,0.1,5.5-3.3,5.5-5.1c0.1-25.1-5.3-48.8-17.1-67.9
	c-6.6,0-11.1-1.1-14.7,0.3c-3.9,1.5-7,5.3-11,8.5c-5.1-10.3-10.1-4.8-15.5,1.4C370.9,344.3,362.7,348.2,356.1,352.1z M288.1,667.7
	c11.9-3.7,24-7,31.6-19.4c-59.6,1.3-107.5-17.7-139.3-69.1c-47.3,63.5,4.2,193,80.8,205.7c-6.2-10.2-12.7-20.9-20.8-34.1
	c20.1,0.7,36.4-0.7,53.1-9.7c-12.5-8.3-23.7-15.7-27.1-26.7c14.4-8.2,27.8-15.4,40.6-23.5c5.5-3.5,6-8.2-1.6-11.3
	c-6.1-2.6-11.8-6.2-17.7-9.3C287.9,669.4,288,668.6,288.1,667.7z M529.2,176.4c21.6,17,42.3,33.2,63.4,49.9
	c15.7-32.3,33.6-63.9,28.4-104C583.7,132.2,553.9,151.4,529.2,176.4z M372.1,178.7c-17.9-12.6-32.8-24.6-49.3-34.1
	c-11.5-6.6-24.9-10.2-37.7-14.2c-5.9-1.8-9.2,1.5-8.3,8.2c2.3,16.2,3.6,32.6,7.1,48.5c3.1,14.2,8.7,28,14,44.6
	C317.9,204.9,341.4,188.5,372.1,178.7z M501.3,606c39.3,11.8,75.3,30.4,109.5,52.9c18.3,12,36.6,24,55,35.7
	c2.9,1.8,6.8,2.2,10.2,3.3c-0.3-3.7-1.2-5.7-2.7-6.9c-35.7-29.4-69.6-61.1-112.6-80.1c-4.7-2.1-6.7-4.5-5.5-9.9
	c3.9-17.2,10.6-32.8,23.7-45.1c1.4-1.3,2.2-3.1,3.3-4.7c-0.7-0.6-1.4-1.1-2.1-1.7c-20.3,11.7-34.1,28.7-40,52.7
	c-21.6-6.7-42.3-12.2-63.5-1.3C484.8,602.5,493.2,603.5,501.3,606z"></path>
</svg><style>@media (prefers-color-scheme: light) { :root { filter: none; } }
</style></svg>